<svg xmlns="http://www.w3.org/2000/svg" viewBox="0 0 163 40"><path d="M18.477.838a2.302 2.302 0 012.523 0A54.694 54.694 0 0126.587 4.8s.484.33.497-.229a8.578 8.578 0 01.129-2.158 1 1 0 01.929-.635s2.193.108 3.587.292a1.349 1.349 0 011.174 1.187s.897 5.88 1.097 8c0 0 .174 1.08 1.761 2.908 0 0 3.226 4.445 3.6 5.295 0 0 .749 1.537-.864 1.746 0 0-2.942.292-3.226.356a.726.726 0 00-.645.787s-.155 10.229-.916 15.143c0 0-.2 1.95-1.29 1.905 0 0-3.026-.095-3.73-.076 0 0-.303 0-.258-.4 0 0 1.542-15.95.497-24.013 0 0-.045-1.041-.852-1.27 0 0-.735-.292-1.438.635a25.029 25.029 0 00-4.787 14.394s-.084 2.54.31 3.174c0 0 .244.445 1.496.546l1.587.21s.29 0 .265.38c0 0-.362 4.68-.465 5.512-.006.19-.045.376-.116.552 0 0-.058.159-.555.14 0 0-6.993-.05-7.78 0 0 0-.33 0-.4-.171-.071-.172-.484-6.039-.471-6.87a.413.413 0 01.245-.407 4.131 4.131 0 001.935-3.04c.085-.89.098-1.783.039-2.674 0 0 .258-8.971.323-10.413 0 0 .051-.489-.594-.577a.611.611 0 00-.454.071.593.593 0 00-.269.367v.05c0 .051-.451 5.918-.367 8.254 0 0 .154 1.53-.923 1.562 0 0-1.045.153-1.097-1.123 0 0 .078-5.753.336-8.597a.638.638 0 00-.574-.635.644.644 0 00-.723.514.14.14 0 000 .05s-.452 5.506-.368 8.414c0 0 .13 1.41-1.013 1.358 0 0-.954.108-1.006-1.143 0 0 .258-7.879.329-8.488a.64.64 0 00-.574-.597h-.065a.643.643 0 00-.69.527.182.182 0 000 .057s-.426 9.422-.368 12.19c0 0-.039 2.845 2.097 4 0 0 .316.178.323.451 0 0 .238 4.997.458 6.61 0 0 .077.387-.271.387l-5.375.146a1.095 1.095 0 01-1.096-1.029 116.487 116.487 0 01-.994-15.968.814.814 0 00-.645-.87s-2.748-.247-3.413-.412a1.124 1.124 0 01-.82-1.365c.029-.102.07-.2.123-.293A54.8 54.8 0 0118.477.838zM55.697 15H50.84c-1.572 0-1.572 0-1.903 1.956-.33 1.956-.325 2.026 1.117 2.026h2.889L51.3 28.977c-.395 2.233-1.311 3.774-4.135 4.68-.721.207-.916.484-.916.836.05.563.207 1.108.46 1.604.456 1.19.722 1.403 1.112 1.403.468-.048.93-.143 1.382-.283 4-1.396 5.642-4.68 6.298-8.592l1.837-11.247C57.664 15 57.664 15 55.697 15m17.141 1.25c-2.13 0-2.13 0-2.419 1.713l-1.535 8.897c-.429 2.6-1.139 4.104-3.768 4.104-2.63 0-3.48-1.503-3.052-3.832l1.49-8.485c.43-2.397.352-2.397-1.848-2.397-2.201 0-2.201 0-2.49 1.645l-1.56 8.898C56.735 31.858 60.004 35 64.623 35c5.182 0 7.812-2.255 8.662-7.591l1.568-8.83c.352-2.329.211-2.329-1.99-2.329m9.83 13.443c1.673-.068 2.574-.818 2.574-1.569 0-.96-1.183-1.298-2.78-1.778-3.132-.96-5.981-2.049-5.981-5.328 0-3.894 3.269-6.017 7.371-6.017 1.65-.011 3.299.058 4.941.21 1.109.135 1.39.473 1.04 2.184-.35 1.71-.764 1.845-1.735 1.778-1.183-.068-2.718-.21-4.521-.21-2.086 0-2.712.757-2.712 1.44 0 .886.833 1.366 2.78 1.913 3.614 1.022 5.981 2.461 5.981 5.537 0 3.624-2.711 5.74-7.095 5.876a35.454 35.454 0 01-6.263-.339c-1.397-.209-1.466-.209-1.115-2.19.345-1.772.345-1.913 1.666-1.772 1.938.24 3.891.33 5.843.271M106.156 15h-11.51c-1.631 0-1.631 0-1.975 2.002-.343 2.002-.27 1.996 1.16 1.996h3.746l-2.116 12.347c-.404 2.405-.337 2.405 1.773 2.405 1.974 0 2.042 0 2.318-1.717l2.177-13.016h3.611c1.632 0 1.632 0 1.975-1.996.343-1.996.337-2.002-1.159-2.002m21.726 3.993c1.6 0 1.6 0 1.937-2.006.336-2.006.33-2.006-1.137-2.006H120.6c-2.874 0-2.802 0-3.271 2.978l-2.069 12.52c-.535 3.252-.469 3.252 2.405 3.252h7.884c1.672 0 1.6 0 1.936-1.937.337-1.938.331-2.006-1.136-2.006h-6.82l.536-3.6h5.677c1.539 0 1.539 0 1.804-1.87.264-1.868.264-1.937-1.804-1.937h-5.01l.536-3.395 6.614.007zm9.201 6.608l2.812-5.928c.221-.484.221-.484.578-.484.358 0 .364 0 .436.552l.863 5.86h-4.689zm7.645-8.274C144.298 15 144.298 15 140.83 15c-3.248 0-3.176 0-4.183 1.93l-7.287 14.548c-1.085 2.067-.864 2.272 1.799 2.272 2.098 0 2.098 0 2.962-1.862l1.15-2.483h7.072l.357 2.483c.292 1.862.364 1.862 2.455 1.862 2.384 0 2.598-.137 2.163-2.414l-2.591-13.99zM161.214 15h-11.57c-1.637 0-1.637 0-1.974 2.002-.337 2.002-.276 1.996 1.152 1.996h3.745l-2.109 12.347c-.41 2.405-.343 2.405 1.771 2.405 1.974 0 2.041 0 2.311-1.717l2.182-13.016h3.603c1.637 0 1.637 0 1.974-1.996.337-1.996.41-2.002-1.085-2.002" fill="#FFF"/></svg>
