<svg xmlns="http://www.w3.org/2000/svg" width="98" height="24" viewBox="0 0 98 24">
    <g fill="#FF8000" fill-rule="evenodd">
        <path fill-rule="nonzero" d="M10.966.503c.454-.301 1.044-.301 1.498 0 1.154.722 2.262 1.516 3.316 2.377 0 0 .287.198.294-.137-.028-.433-.002-.868.077-1.295.087-.229.306-.38.551-.381 0 0 1.302.064 2.13.175.369.049.657.343.696.712 0 0 .532 3.528.651 4.8 0 0 .104.648 1.045 1.745 0 0 1.915 2.667 2.137 3.177 0 0 .444.922-.513 1.048 0 0-1.746.175-1.915.213-.235.028-.405.238-.382.473 0 0-.092 6.137-.544 9.085 0 0-.119 1.17-.766 1.143 0 0-1.796-.057-2.213-.046 0 0-.18 0-.153-.24 0 0 .915-9.57.295-14.407 0 0-.027-.625-.506-.762 0 0-.436-.175-.854.38C14 11.087 13.008 14.1 12.97 17.2c0 0-.05 1.524.184 1.905 0 0 .145.266.888.327l.942.126s.172 0 .157.229c0 0-.214 2.807-.276 3.306-.003.114-.027.226-.069.332 0 0-.034.095-.329.084 0 0-4.15-.03-4.618 0 0 0-.195 0-.237-.103-.042-.103-.287-3.623-.28-4.122-.007-.104.05-.201.146-.244.642-.403 1.064-1.074 1.149-1.825.05-.533.058-1.07.023-1.604 0 0 .153-5.382.191-6.247 0 0 .03-.294-.352-.347-.092-.022-.189-.006-.27.043-.08.05-.137.129-.16.22v.03c0 .031-.267 3.551-.217 4.953 0 0 .092.918-.548.937 0 0-.62.091-.65-.674 0 0 .045-3.452.198-5.158.001-.195-.146-.36-.34-.381-.203-.028-.392.108-.43.308v.03s-.267 3.304-.218 5.048c0 0 .077.846-.6.816 0 0-.567.064-.598-.686 0 0 .153-4.728.195-5.093-.01-.187-.154-.338-.34-.359H6.47c-.198-.016-.376.121-.41.317v.034s-.252 5.653-.218 7.314c0 0-.023 1.707 1.245 2.4 0 0 .187.107.191.27 0 0 .142 2.999.272 3.966 0 0 .046.233-.16.233l-3.19.087c-.348-.001-.633-.272-.651-.617-.414-3.177-.61-6.377-.59-9.58.023-.246-.141-.47-.383-.523 0 0-1.631-.148-2.026-.247-.36-.094-.578-.46-.486-.82.017-.06.041-.12.073-.175C2.788 7.161 6.502 3.316 10.966.503zM33.428 9.383H30.28c-1.018 0-1.018 0-1.233 1.185-.214 1.184-.21 1.226.724 1.226h1.872l-1.064 6.054c-.257 1.352-.85 2.285-2.68 2.834-.468.126-.594.293-.594.507.033.34.134.67.299.971.295.72.467.85.72.85.303-.03.603-.087.896-.172 2.592-.846 3.656-2.834 4.081-5.204l1.191-6.811c.21-1.44.21-1.44-1.064-1.44M44.103 9.383c-1.275 0-1.275 0-1.447 1.059l-.92 5.5c-.256 1.608-.68 2.538-2.255 2.538-1.573 0-2.083-.93-1.826-2.37l.892-5.245c.257-1.482.21-1.482-1.106-1.482-1.318 0-1.318 0-1.49 1.017l-.934 5.501c-.552 3.131 1.405 5.074 4.17 5.074 3.101 0 4.675-1.394 5.184-4.693l.938-5.46c.21-1.44.127-1.44-1.19-1.44M49.927 18.396c1.022-.042 1.574-.506 1.574-.971 0-.595-.724-.804-1.7-1.101-1.915-.594-3.657-1.269-3.657-3.3 0-2.41 1.999-3.725 4.507-3.725 1.008-.007 2.017.036 3.02.13.679.083.851.293.637 1.352-.215 1.059-.468 1.143-1.061 1.1-.724-.041-1.662-.129-2.765-.129-1.275 0-1.658.469-1.658.892 0 .548.51.846 1.7 1.185 2.21.632 3.657 1.523 3.657 3.428 0 2.244-1.658 3.554-4.338 3.638-1.28.045-2.562-.025-3.83-.21-.853-.129-.895-.129-.68-1.355.21-1.098.21-1.185 1.018-1.098 1.184.149 2.379.205 3.572.168M63.834 9.383h-7.187c-1.018 0-1.018 0-1.233 1.23-.214 1.23-.168 1.227.724 1.227h2.34l-1.322 7.589c-.252 1.478-.21 1.478 1.107 1.478 1.233 0 1.275 0 1.447-1.056l1.36-8h2.255c1.019 0 1.019 0 1.233-1.226.214-1.227.21-1.23-.724-1.23M76.508 11.81c1.019 0 1.019 0 1.233-1.227.215-1.227.211-1.227-.723-1.227H71.87c-1.83 0-1.784 0-2.083 1.821l-1.317 7.657c-.34 1.989-.298 1.989 1.532 1.989h5.02c1.064 0 1.018 0 1.233-1.185.214-1.185.21-1.227-.724-1.227H71.19l.34-2.201h3.615c.98 0 .98 0 1.149-1.143.168-1.143.168-1.185-1.149-1.185h-3.19l.341-2.076 4.212.004zM81.942 15.859l1.658-3.638c.13-.297.13-.297.34-.297.211 0 .215 0 .257.339l.51 3.596h-2.765zm4.507-5.078c-.253-1.44-.253-1.44-2.298-1.44-1.914 0-1.872 0-2.466 1.185l-4.296 8.93c-.64 1.268-.51 1.394 1.06 1.394 1.238 0 1.238 0 1.747-1.143l.678-1.524h4.17l.21 1.524c.172 1.143.214 1.143 1.447 1.143 1.406 0 1.532-.084 1.275-1.482L86.45 10.78zM96.622 9.383h-7.229c-1.022 0-1.022 0-1.233 1.23-.21 1.23-.172 1.227.72 1.227h2.34l-1.318 7.589c-.256 1.478-.214 1.478 1.107 1.478 1.233 0 1.275 0 1.444-1.056l1.363-8h2.251c1.023 0 1.023 0 1.233-1.226.21-1.227.257-1.23-.678-1.23"/>
    </g>
</svg>
