<svg viewBox="0 0 364.53 212.86" xmlns="http://www.w3.org/2000/svg"><g fill="#ff8000"><path d="m83.64 76.32a3.52 3.52 0 0 1 3.91 0 84.49 84.49 0 0 1 8.66 6.24s.75.52.77-.36a13.77 13.77 0 0 1 .2-3.4 1.55 1.55 0 0 1 1.44-1s3.4.17 5.56.46a2.11 2.11 0 0 1 1.82 1.87s1.39 9.26 1.7 12.6c0 0 .27 1.7 2.73 4.58 0 0 5 7 5.58 8.34 0 0 1.16 2.42-1.34 2.75 0 0-4.56.46-5 .56a1.14 1.14 0 0 0 -1 1.24s-.24 16.11-1.42 23.85c0 0-.31 3.07-2 3 0 0-4.69-.15-5.78-.12 0 0-.47 0-.4-.63 0 0 2.39-25.12.77-37.82 0 0-.07-1.64-1.32-2 0 0-1.14-.46-2.23 1a39.85 39.85 0 0 0 -7.42 22.67s-.13 4 .48 5c0 0 .38.7 2.32.86l2.46.33s.45 0 .41.6c0 0-.56 7.37-.72 8.68a2.6 2.6 0 0 1 -.18.87s-.09.25-.86.22c0 0-10.84-.08-12.06 0 0 0-.51 0-.62-.27s-.75-9.51-.73-10.82a.65.65 0 0 1 .38-.64 6.52 6.52 0 0 0 3-4.79 26.5 26.5 0 0 0 .06-4.21s.4-14.13.5-16.4c0 0 .08-.77-.92-.91a.93.93 0 0 0 -1.12.69s0 0 0 .08-.7 9.32-.57 13c0 0 .24 2.41-1.43 2.46 0 0-1.62.24-1.7-1.77 0 0 .12-9.06.52-13.54a1 1 0 0 0 -.89-1 1 1 0 0 0 -1.12.81.22.22 0 0 0 0 .08s-.7 8.67-.57 13.25c0 0 .2 2.22-1.57 2.14 0 0-1.48.17-1.56-1.8 0 0 .4-12.41.51-13.37a1 1 0 0 0 -.89-.94h-.1a1 1 0 0 0 -1.07.83.28.28 0 0 0 0 .09s-.66 14.84-.57 19.2c0 0-.06 4.48 3.25 6.3 0 0 .49.28.5.71 0 0 .37 7.87.71 10.41 0 0 .12.61-.42.61l-8.33.23a1.71 1.71 0 0 1 -1.7-1.62 186.47 186.47 0 0 1 -1.54-25.15 1.28 1.28 0 0 0 -1-1.37s-4.26-.39-5.29-.65a1.77 1.77 0 0 1 -1.27-2.15 2 2 0 0 1 .19-.46 85.67 85.67 0 0 1 28.28-29.42z"/><path d="m142.3 99.63h-8.22c-2.66 0-2.66 0-3.22 3.11s-.55 3.22 1.89 3.22h4.89l-2.78 15.89c-.67 3.55-2.22 6-7 7.44-1.22.33-1.55.77-1.55 1.33a6.65 6.65 0 0 0 .78 2.55c.77 1.89 1.22 2.23 1.88 2.23a12.63 12.63 0 0 0 2.34-.45c6.77-2.22 9.55-7.44 10.66-13.66l3.11-17.88c.55-3.78.55-3.78-2.78-3.78"/><path d="m170.18 99.63c-3.33 0-3.33 0-3.78 2.78l-2.4 14.44c-.67 4.22-1.78 6.66-5.89 6.66s-5.44-2.44-4.77-6.22l2.33-13.77c.67-3.89.55-3.89-2.89-3.89s-3.44 0-3.89 2.67l-2.44 14.44c-1.44 8.22 3.67 13.32 10.89 13.32 8.1 0 12.21-3.66 13.54-12.32l2.45-14.33c.55-3.78.33-3.78-3.11-3.78"/><path d="m185.39 123.29c2.67-.11 4.11-1.33 4.11-2.55 0-1.56-1.89-2.11-4.44-2.89-5-1.56-9.55-3.33-9.55-8.66 0-6.33 5.22-9.78 11.77-9.78a78.56 78.56 0 0 1 7.89.34c1.77.22 2.22.77 1.66 3.55s-1.22 3-2.77 2.89c-1.89-.11-4.34-.34-7.22-.34-3.33 0-4.33 1.23-4.33 2.34 0 1.44 1.33 2.22 4.44 3.11 5.77 1.66 9.55 4 9.55 9 0 5.89-4.33 9.33-11.33 9.55a55.67 55.67 0 0 1 -10-.55c-2.23-.34-2.34-.34-1.78-3.56.55-2.88.55-3.11 2.66-2.88a59.69 59.69 0 0 0 9.33.44"/><path d="m221.71 99.63h-18.77c-2.66 0-2.66 0-3.22 3.23s-.44 3.22 1.89 3.22h6.11l-3.45 19.92c-.66 3.88-.55 3.88 2.89 3.88 3.22 0 3.33 0 3.78-2.77l3.55-21h5.89c2.66 0 2.66 0 3.22-3.22s.55-3.23-1.89-3.23"/><path d="m254.81 106c2.66 0 2.66 0 3.22-3.22s.55-3.22-1.89-3.22h-13.44c-4.78 0-4.66 0-5.44 4.78l-3.44 20.1c-.89 5.22-.78 5.22 4 5.22h13.11c2.78 0 2.66 0 3.22-3.11s.55-3.22-1.89-3.22h-11.34l.89-5.78h9.44c2.56 0 2.56 0 3-3s.44-3.11-3-3.11h-8.33l.89-5.45z"/><path d="m269 116.63 4.33-9.55c.34-.78.34-.78.89-.78s.56 0 .67.89l1.33 9.44zm11.77-13.33c-.66-3.78-.66-3.78-6-3.78-5 0-4.89 0-6.44 3.11l-11.22 23.44c-1.67 3.33-1.33 3.66 2.77 3.66 3.23 0 3.23 0 4.56-3l1.77-4h10.89l.55 4c.45 3 .56 3 3.78 3 3.67 0 4-.22 3.33-3.89z"/><path d="m307.34 99.63h-18.88c-2.67 0-2.67 0-3.22 3.23s-.45 3.22 1.88 3.22h6.11l-3.44 19.92c-.67 3.88-.56 3.88 2.89 3.88 3.22 0 3.33 0 3.77-2.77l3.56-21h5.88c2.67 0 2.67 0 3.22-3.22s.67-3.23-1.77-3.23"/></g></svg>