<?xml version="1.0" encoding="utf-8"?>
<!-- Generator: Adobe Illustrator 19.2.1, SVG Export Plug-In . SVG Version: 6.00 Build 0)  -->
<svg version="1.1" id="Layer_1" xmlns="http://www.w3.org/2000/svg" xmlns:xlink="http://www.w3.org/1999/xlink" x="0px" y="0px"
	 viewBox="0 0 1160.9 274.5" style="enable-background:new 0 0 1160.9 274.5;" xml:space="preserve">
<style type="text/css">
	.st0{fill:#FFFFFF;}
</style>
<g>
	<path id="XMLID_16_" class="st0" d="M890.1,144.2l26.6-58.1c2.3-4.9,2.3-4.9,5.3-4.9c3.4,0,3.4,0,4.2,5.3l8,57.7H890.1z
		 M961.9,63.3c-4.2-22.8-4.2-22.8-36.5-22.8c-30.4,0-30,0-39.1,18.6l-68.8,142.4c-9.9,20.5-8.4,22,17.1,22c19.8,0,19.4,0,27.7-18.2
		l11-24.3h66.1l3.4,24.3c2.7,18.2,3.4,18.2,23.2,18.2c22.2,0,24.4-1.6,20.1-23.6L961.9,63.3z"/>
	<path id="XMLID_15_" class="st0" d="M804,79.2c16.1,0,16.2-0.2,19.5-19.4c3.3-19.3,3.3-19.4-11.5-19.4h-82
		c-28.9,0-28.3,0-33.3,29.2l-21,122.3c-5.3,31.5-5,31.5,24.6,31.5h80.1c16.7,0,16.3,0,19.8-19c3.4-19.8,3.4-19.8-11.8-19.8h-69.1
		l5.7-35.3h57.4c15.6,0,15.6,0,18.2-18.2c3-18.6,3-18.6-18.2-18.6h-51.3l5.7-33.4H804z"/>
	<path id="XMLID_52_" class="st0" d="M602.3,40.5H487.4c-16.3,0-16.3,0-19.8,19.4s-3,19.4,11.4,19.4h37.4L495.6,200
		c-3.8,23.6-3.5,23.6,17.8,23.6c19.4,0,20.6,0,23.2-16.7l22-127.6h35.7c16.1,0,16.1,0,19.5-19.4C617.1,40.5,617.1,40.5,602.3,40.5z"
		/>
	<path id="XMLID_14_" class="st0" d="M288,40.5c-20,0-20.4,0.1-23.2,16.8l-15.1,88c-4.2,25.5-11.1,40.4-35.8,40.4
		c-24.7,0-33.1-14.8-29.3-37.6l14.4-84.1c3.8-23.6,3.1-23.4-17.8-23.4c-20.4,0-20.9-0.2-23.6,16.6l-15.2,88.3
		c-8.6,50,22.1,80.9,66.2,80.9c49.4,0,74.2-22,82.6-74.8l15-87.4C310.2,40.5,309.3,40.5,288,40.5z"/>
	<path id="XMLID_12_" class="st0" d="M118.4,40.5H68.1c-16.5,0-16.5,0-19.8,19.1c-3.4,19.1-3,19.7,11.6,19.7h29.9l-16.6,96.7
		c-3.7,21.7-13.5,36.3-42.6,45.3c-7.5,2.2-9.7,5.2-9.7,8.6c0,3.7,1.5,7.5,4.5,15.3c4.5,11.6,7.5,13.8,11.6,13.8s11.6-2.2,14.2-3
		c41.5-13.5,58-45.3,64.7-83.4l18.7-108.8C138.6,40.9,138.6,40.5,118.4,40.5z"/>
	<path id="XMLID_41_" class="st0" d="M380.5,184.9c16.2-1,24.7-7.9,24.7-15.9c0-9.5-11.8-12.9-27.3-17.5
		c-30.8-9.5-58.1-20.3-58.1-52.9c0-38.4,31.5-59.2,71.4-59.2c16.7,0,35.9,1,48.3,2.1c11.2,1,13.2,5,10.3,21.7
		c-2.9,16.7-6.8,18.4-16,17.6c-11.5-1-26.4-2-43.7-1.8c-20.5,0.3-26.3,7.2-26.3,14.4c0,8.7,8,13.7,27,18.6
		c35.3,10.3,58.5,24.2,58.5,54.6c0,35.7-26.6,56.6-69.1,58.3c-23.2,0.9-43.1-0.8-60.7-3.4c-13.5-2-14-2.2-10.7-21.7
		c3.1-17.7,3.5-19,15.9-17.5C348.7,185.2,364.2,185.9,380.5,184.9z"/>
	<path id="XMLID_13_" class="st0" d="M1124,40.5h-114.9c-16.3,0-16.3,0-19.8,19.4s-3,19.4,11.4,19.4h37.4L1017.3,200
		c-3.8,23.6-3.5,23.6,17.8,23.6c19.4,0,20.6,0,23.2-16.7l22-127.6h35.7c16.1,0,16.1,0,19.5-19.4C1138.8,40.5,1138.8,40.5,1124,40.5z
		"/>
</g>
</svg>
